PathFileType	4	(X/Y/Z)	Walk7.trc
DataRate	CameraRate	NumFrames	NumMarkers	Units	OrigDataRate	OrigDataStartFrame	OrigNumFrames
200.000000	200.000000	7	59	mm	200.000000	504	590
Frame#	Times		LFHD		RFHD		CLAV		STRN		LASI		RASI		RACR1		RUA1		RElbow		RFA1		RWRR		RWRU		RCAR		LACR1		LUA1		LElbow		LFA1		LWRR		LCAR		RTH3		RTH2		RTB1		RTB2		RTB4		LTH1		LTH3		LTH2		LTH4		LLFC		LTB1		LTB2		LTB4		LMT1		LToe		LWRU		LMT5		LTB3		RTB3		LMFC		RMT1		RMMAL		RElbowM		RLFC		RToe		RBHD		RTH4		RTH1		RCAL		RBack		RMFC		RPSI		LLMAL		C7		LPSI		T10		LMMAL		LBHD		LCAL		LElbowM
			X1	Y1	Z1	X2	Y2	Z2	X3	Y3	Z3	X4	Y4	Z4	X5	Y5	Z5	X6	Y6	Z6	X7	Y7	Z7	X8	Y8	Z8	X9	Y9	Z9	X10	Y10	Z10	X11	Y11	Z11	X12	Y12	Z12	X13	Y13	Z13	X14	Y14	Z14	X15	Y15	Z15	X16	Y16	Z16	X17	Y17	Z17	X18	Y18	Z18	X19	Y19	Z19	X20	Y20	Z20	X21	Y21	Z21	X22	Y22	Z22	X23	Y23	Z23	X24	Y24	Z24	X25	Y25	Z25	X26	Y26	Z26	X27	Y27	Z27	X28	Y28	Z28	X29	Y29	Z29	X30	Y30	Z30	X31	Y31	Z31	X32	Y32	Z32	X33	Y33	Z33	X34	Y34	Z34	X35	Y35	Z35	X36	Y36	Z36	X37	Y37	Z37	X38	Y38	Z38	X39	Y39	Z39	X40	Y40	Z40	X41	Y41	Z41	X42	Y42	Z42	X43	Y43	Z43	X44	Y44	Z44	X45	Y45	Z45	X46	Y46	Z46	X47	Y47	Z47	X48	Y48	Z48	X49	Y49	Z49	X50	Y50	Z50	X51	Y51	Z51	X52	Y52	Z52	X53	Y53	Z53	X54	Y54	Z54	X55	Y55	Z55	X56	Y56	Z56	X57	Y57	Z57	X58	Y58	Z58	X59	Y59	Z59

504	2.52	1150.3	1644.1	12.868	1147.9	1629.9	-85.148	1151.8	1381.5	-0.92078	1217.6	1225.3	13.542	1112.8	959.57	-148.34	1099.1	973.11	207.69	1035.4	1480.5	163.74	1036.5	1322.1	295.8	1070.4	1183.9	356.44	1149.8	1057	361.56	1204.7	957.97	283.27	1205.5	957.18	365.54	1263	892.31	323.71	1032.4	1433.2	-183.45	964.76	1266.6	-256.72	911.51	1109.4	-294.76	903.2	968.52	-305.25	936.47	837.31	-250.47	921.88	750.22	-282.64	950.08	585.2	233.49	1013.6	668.26	228.53	879.64	345.95	156.29	792.67	308.65	202.69	810.85	294.11	146.01	1103.7	748.95	-172.11	1165.2	592.13	-141.85	1186.3	694.83	-143.37	1133	671.12	-156.24	1172.7	508.94	-137.33	1260.7	400.8	-72.162	1230.2	305.65	-102.99	1262.7	319.13	-50.229	1336.1	37.508	-15.164	1381.6	40.976	-53.755	880.72	830.53	-299.53	1266.8	25.183	-88.49	1255.4	233.89	-31.29	742.64	242.57	135.37	1199.9	513.95	17.865	645.59	47.453	81.462	618.51	182.75	71.483	1029.4	1098.6	268.54	905.86	480.26	226.93	678.73	23.736	118.87	996.27	1553.2	-84.156	956.83	670.43	239.85	961.31	756.81	246.96	531.54	227.02	104.12	895.21	1353	124.54	922.68	473.26	72.319	845.2	1010.1	51.889	1172	72.323	-21.779	955.76	1462.4	-3.7329	862.56	1012.2	-31.393	892.91	1146.9	17.829	1204	85.594	62.003	1015.6	1578.8	62.775	1128.4	44.356	39.723	854.3	1068.7	-191.26
505	2.525	1156.8	1645.4	11.899	1154.5	1631.1	-86.104	1158.4	1382.7	-1.8583	1224.2	1226.5	12.634	1118.9	960.85	-149.58	1106.3	974.23	206.2	1042.1	1481.8	162.75	1042.7	1323.4	294.86	1076.1	1185	355.31	1154.6	1057.4	360.83	1208.5	957.59	282.81	1209.4	957.08	365.08	1266.2	891.4	323.39	1039.1	1434.3	-184.36	972.28	1267.3	-257.61	919.72	1109.9	-295.6	912.42	968.95	-306.17	946.74	837.92	-251.56	932.86	750.89	-284.11	961.82	585.24	234.12	1024.2	669.13	228.52	891.39	346.57	157.41	803.94	310.5	204	821.84	295.72	147.3	1108.6	749.26	-172.82	1169	592.06	-142.28	1190.7	694.6	-144.17	1137.2	671.24	-156.72	1176	508.87	-137.62	1263.3	400.16	-72.348	1232.2	305.17	-103.1	1264.7	318.51	-50.333	1336.3	37.307	-15.001	1382.2	40.125	-53.675	891	830.85	-300.55	1266.8	25.284	-88.494	1256.8	233.35	-31.278	752.88	245.11	136.85	1203.7	513.92	17.547	651.3	50.311	82.49	627.65	187.15	73.251	1034.9	1100	267.59	918.71	480.34	227.94	682.96	23.913	119.89	1002.9	1554.3	-85.182	967.46	670.58	240.1	970.79	757.06	246.74	541.89	233.33	106.3	901.86	1354.3	123.63	935.89	472.76	73.21	851.87	1010.9	51.355	1172.3	72.378	-21.659	962.51	1463.6	-4.7578	869.02	1013.5	-32.155	899.55	1148.1	16.94	1204.3	85.473	62.168	1022.1	1579.9	61.738	1128.5	44.529	39.794	863.06	1068.7	-191.93
506	2.53	1163.2	1646.6	11.003	1161	1632.3	-86.993	1165.1	1383.9	-2.7689	1230.8	1227.6	11.705	1125	962.12	-150.82	1113.5	975.35	204.7	1048.8	1483	161.8	1048.8	1324.7	293.94	1081.7	1186	354.22	1159.3	1057.7	360.14	1212.4	957.17	282.41	1213.3	956.95	364.67	1269.4	890.47	323.14	1045.8	1435.5	-185.24	979.8	1268	-258.5	927.97	1110.3	-296.46	921.72	969.41	-307.1	957.1	838.59	-252.63	944	751.61	-285.56	973.66	585.34	234.7	1034.8	670.06	228.5	903.39	347.29	158.34	815.53	312.32	205.17	833.11	297.38	148.42	1113.4	749.61	-173.51	1172.7	592.03	-142.71	1195.2	694.4	-144.9	1141.4	671.4	-157.2	1179.2	508.82	-137.91	1265.8	399.53	-72.532	1234.1	304.71	-103.22	1266.6	317.92	-50.442	1336.5	37.162	-14.872	1382.6	39.334	-53.639	901.39	831.2	-301.57	1266.9	25.373	-88.502	1258.2	232.82	-31.276	763.45	247.66	138.14	1207.3	513.87	17.232	657.81	53.282	83.689	637.16	191.47	74.925	1040.3	1101.3	266.65	931.71	480.47	228.87	688.04	24.286	121.08	1009.5	1555.4	-86.157	978.14	670.77	240.34	980.29	757.34	246.53	552.52	239.35	108.46	908.45	1355.7	122.7	949.21	472.41	74.008	858.48	1011.8	50.835	1172.6	72.435	-21.558	969.24	1464.8	-5.7555	875.44	1014.9	-32.908	906.15	1149.3	16.059	1204.6	85.367	62.308	1028.6	1581.1	60.761	1128.6	44.694	39.854	871.81	1068.7	-192.66
507	2.535	1169.7	1647.9	10.174	1167.6	1633.6	-87.819	1171.6	1385.1	-3.6545	1237.3	1228.6	10.756	1131.1	963.37	-152.06	1120.6	976.49	203.21	1055.4	1484.2	160.9	1054.9	1326	293.04	1087.3	1187	353.18	1163.9	1058	359.5	1216.1	956.72	282.06	1217.1	956.78	364.32	1272.5	889.52	322.96	1052.5	1436.7	-186.1	987.32	1268.8	-259.4	936.27	1110.8	-297.36	931.1	969.89	-308.04	967.57	839.32	-253.69	955.29	752.39	-286.98	985.56	585.52	235.23	1045.5	671.06	228.46	915.61	348.12	159.11	827.44	314.09	206.2	844.66	299.11	149.36	1118.2	750	-174.18	1176.3	592.03	-143.13	1199.5	694.22	-145.57	1145.6	671.59	-157.68	1182.3	508.77	-138.21	1268.2	398.92	-72.716	1236	304.26	-103.35	1268.4	317.34	-50.556	1336.6	37.061	-14.773	1383.1	38.594	-53.644	911.89	831.56	-302.57	1266.9	25.45	-88.516	1259.5	232.32	-31.282	774.34	250.22	139.26	1210.7	513.79	16.921	665.16	56.331	85.049	647.04	195.69	76.497	1045.7	1102.6	265.72	944.83	480.66	229.72	694.04	24.886	122.43	1016.1	1556.5	-87.083	988.88	671.01	240.54	989.82	757.66	246.31	563.41	245.04	110.56	915	1357	121.75	962.6	472.21	74.717	865.03	1012.7	50.331	1172.9	72.495	-21.475	975.95	1466	-6.7227	881.8	1016.3	-33.644	912.69	1150.5	15.196	1204.9	85.276	62.426	1035.1	1582.2	59.842	1128.8	44.854	39.903	880.57	1068.8	-193.44
508	2.54	1176.1	1649.1	9.4077	1174	1634.8	-88.585	1178.2	1386.3	-4.5165	1243.8	1229.7	9.7873	1137.1	964.59	-153.28	1127.6	977.64	201.73	1062	1485.4	160.04	1060.8	1327.2	292.17	1092.8	1188	352.18	1168.5	1058.2	358.9	1219.8	956.23	281.77	1220.9	956.58	364.03	1275.5	888.55	322.86	1059.1	1437.9	-186.93	994.84	1269.6	-260.31	944.62	1111.3	-298.3	940.55	970.37	-309	978.12	840.09	-254.74	966.71	753.22	-288.37	997.53	585.78	235.7	1056.2	672.15	228.4	928.04	349.05	159.71	839.63	315.81	207.09	856.46	300.89	150.14	1123	750.42	-174.82	1179.8	592.05	-143.54	1203.8	694.05	-146.19	1149.7	671.81	-158.16	1185.3	508.73	-138.51	1270.4	398.34	-72.9	1237.8	303.84	-103.48	1270.1	316.78	-50.676	1336.8	36.997	-14.702	1383.5	37.9	-53.686	922.5	831.94	-303.58	1267	25.513	-88.535	1260.7	231.84	-31.297	785.55	252.78	140.2	1213.9	513.68	16.611	673.37	59.425	86.56	657.29	199.78	77.966	1051	1103.9	264.79	958.06	480.93	230.5	701	25.736	123.92	1022.7	1557.6	-87.962	999.64	671.33	240.72	999.36	758.04	246.09	574.56	250.36	112.58	921.49	1358.3	120.79	976.03	472.2	75.34	871.55	1013.6	49.846	1173.2	72.557	-21.406	982.63	1467.2	-7.6562	888.11	1017.6	-34.356	919.19	1151.8	14.355	1205.1	85.2	62.523	1041.6	1583.3	58.98	1128.8	45.009	39.945	889.33	1068.8	-194.27
509	2.545	1182.5	1650.3	8.6999	1180.5	1636.1	-89.296	1184.7	1387.5	-5.3562	1250.2	1230.7	8.8009	1143.1	965.8	-154.48	1134.5	978.79	200.28	1068.6	1486.5	159.23	1066.8	1328.4	291.32	1098.3	1188.9	351.23	1173.1	1058.4	358.35	1223.5	955.69	281.53	1224.5	956.33	363.79	1278.5	887.56	322.83	1065.7	1439.1	-187.73	1002.3	1270.4	-261.22	953.02	1111.8	-299.27	950.07	970.86	-309.97	988.76	840.89	-255.78	978.27	754.09	-289.73	1009.5	586.14	236.11	1066.9	673.32	228.31	940.66	350.1	160.17	852.09	317.5	207.85	868.51	302.71	150.77	1127.7	750.87	-175.45	1183.3	592.08	-143.95	1208.1	693.9	-146.75	1153.7	672.05	-158.64	1188.2	508.7	-138.82	1272.6	397.77	-73.086	1239.5	303.43	-103.62	1271.8	316.25	-50.801	1336.9	36.959	-14.655	1383.9	37.245	-53.759	933.2	832.32	-304.58	1267	25.564	-88.56	1261.9	231.37	-31.321	797.07	255.32	140.98	1217	513.54	16.303	682.46	62.525	88.205	667.93	203.69	79.331	1056.2	1105	263.88	971.39	481.31	231.21	708.97	26.847	125.56	1029.3	1558.7	-88.795	1010.4	671.73	240.85	1008.9	758.47	245.86	585.94	255.26	114.48	927.94	1359.5	119.83	989.46	472.38	75.884	878.02	1014.6	49.378	1173.5	72.621	-21.348	989.29	1468.4	-8.5528	894.37	1019	-35.04	925.63	1153	13.542	1205.4	85.136	62.602	1048.1	1584.4	58.172	1128.9	45.161	39.979	898.09	1068.8	-195.15
510	2.55	1188.9	1651.5	8.0454	1187	1637.3	-89.956	1191.2	1388.6	-6.1745	1256.5	1231.7	7.7994	1149	966.97	-155.65	1141.4	979.96	198.87	1075.2	1487.6	158.46	1072.6	1329.5	290.5	1103.7	1189.8	350.32	1177.6	1058.5	357.84	1227.1	955.11	281.36	1228.1	956.04	363.61	1281.4	886.56	322.88	1072.3	1440.4	-188.51	1009.8	1271.2	-262.14	961.48	1112.2	-300.28	959.67	971.34	-310.95	999.48	841.72	-256.81	989.95	754.99	-291.05	1021.6	586.6	236.46	1077.7	674.59	228.2	953.45	351.26	160.49	864.79	319.14	208.49	880.8	304.58	151.26	1132.4	751.33	-176.06	1186.8	592.14	-144.36	1212.3	693.75	-147.28	1157.8	672.31	-159.12	1191.1	508.68	-139.12	1274.7	397.22	-73.274	1241.1	303.03	-103.76	1273.4	315.73	-50.93	1337	36.943	-14.628	1384.3	36.624	-53.861	944	832.69	-305.58	1267	25.603	-88.59	1263	230.93	-31.352	808.88	257.81	141.61	1219.8	513.38	15.998	692.43	65.59	89.963	678.96	207.39	80.593	1061.3	1106.1	262.97	984.79	481.8	231.83	717.98	28.211	127.31	1035.8	1559.8	-89.586	1021.3	672.22	240.94	1018.5	758.98	245.62	597.56	259.73	116.23	934.34	1360.8	118.86	1002.9	472.77	76.355	884.45	1015.5	48.928	1173.7	72.685	-21.298	995.92	1469.6	-9.4098	900.57	1020.3	-35.689	932.03	1154.2	12.759	1205.6	85.086	62.667	1054.5	1585.5	57.416	1129	45.31	40.008	906.85	1068.9	-196.1
